<?xml version="1.0" standalone="no"?>
<!DOCTYPE svg PUBLIC "-//W3C//DTD SVG 20010904//EN"
 "http://www.w3.org/TR/2001/REC-SVG-20010904/DTD/svg10.dtd">
<svg version="1.0" xmlns="http://www.w3.org/2000/svg"
 width="596.000000pt" height="498.000000pt" viewBox="0 0 596.000000 498.000000"
 preserveAspectRatio="xMidYMid meet">

<g transform="translate(0.000000,498.000000) scale(0.100000,-0.100000)"
fill="#000000" stroke="none">
<path d="M2545 4221 c-40 -19 -34 -19 705 -21 543 -1 753 -5 775 -13 47 -18
71 -39 97 -82 23 -39 23 -44 26 -367 2 -218 0 -328 -7 -328 -6 0 -26 8 -46 17
l-35 17 0 241 c0 235 -1 243 -23 276 -13 19 -38 39 -57 46 -26 9 -221 12 -738
12 -763 1 -746 2 -790 -54 l-22 -28 0 -1209 0 -1210 34 -34 c32 -32 38 -34
105 -34 l71 0 0 93 c0 117 20 167 79 196 38 20 57 21 363 21 360 0 370 -2 415
-69 20 -30 23 -47 23 -137 l0 -104 225 0 c186 0 231 3 256 16 60 30 59 23 59
714 0 346 2 630 5 630 3 0 24 -9 46 -20 l40 -21 -3 -732 c-3 -674 -4 -735 -20
-766 -10 -19 -18 -35 -18 -36 0 -1 12 0 27 3 l26 5 -6 -79 c-14 -173 -20 -294
-14 -294 4 0 71 40 149 88 79 49 161 99 184 111 52 29 74 67 74 125 0 39 -6
52 -34 84 l-34 37 -132 3 c-119 3 -131 5 -123 20 4 9 9 365 11 789 l3 773 111
-56 111 -56 24 31 c28 36 43 40 43 12 0 -30 17 -34 50 -14 43 25 110 157 110
216 0 81 -21 100 -247 215 l-203 103 0 357 c0 196 -5 375 -10 396 -12 54 -38
87 -90 114 l-44 22 -756 0 c-720 -1 -757 -1 -795 -19z m175 -487 c0 -9 -20
-24 -50 -36 -27 -11 -50 -24 -50 -28 0 -4 20 -15 45 -24 47 -18 60 -30 51 -45
-10 -15 -146 50 -146 69 0 11 23 28 68 48 79 36 82 37 82 16z m283 -30 c37
-18 49 -47 25 -57 -7 -3 -39 -17 -70 -31 -52 -23 -58 -24 -58 -8 0 12 16 24
50 37 28 11 50 22 50 25 0 3 -22 14 -50 25 -34 13 -50 25 -50 37 0 20 10 17
103 -28z m1215 -46 c3 -67 3 -68 -23 -68 -24 0 -25 2 -25 71 0 67 1 70 23 67
20 -3 22 -9 25 -70z m-357 13 c20 -20 29 -39 29 -61 0 -22 -9 -41 -29 -61
l-29 -29 -277 0 -277 0 -29 29 c-41 41 -40 90 2 125 l31 26 275 0 275 0 29
-29z m-981 -111 c0 -6 -32 -10 -75 -10 -43 0 -75 4 -75 10 0 6 32 10 75 10 43
0 75 -4 75 -10z m1340 -115 c0 -41 -3 -75 -6 -75 -3 0 -14 5 -25 10 -16 9 -19
22 -19 75 0 63 1 65 25 65 24 0 25 -2 25 -75z m-1095 -180 c24 -23 25 -28 25
-178 0 -140 -2 -155 -20 -175 -30 -32 -47 -34 -253 -30 -241 4 -231 -4 -235
175 -4 148 1 186 30 213 20 19 36 20 225 20 203 0 204 0 228 -25z m1024 -25
c73 0 73 0 59 -22 -13 -19 -22 -21 -88 -19 l-73 2 40 -48 c22 -26 43 -53 46
-60 8 -13 -1 -43 -13 -43 -4 0 -35 36 -69 80 -48 61 -61 85 -56 101 6 18 12
20 44 15 20 -3 69 -6 110 -6z m130 -131 c-56 -60 -104 -109 -108 -109 -3 0
-13 5 -21 10 -16 10 -11 16 129 162 54 56 67 65 83 57 17 -9 8 -22 -83 -120z
m164 -42 c79 -102 77 -107 -58 -107 -58 0 -105 4 -105 9 0 34 11 38 87 33 86
-5 85 -8 21 69 -26 31 -36 52 -32 63 10 26 23 16 87 -67z m-919 -481 c49 -21
66 -51 66 -119 0 -54 -3 -62 -34 -93 l-34 -34 -396 0 c-440 0 -439 0 -470 64
-31 65 -11 141 46 176 32 19 50 20 411 20 300 0 384 -3 411 -14z m311 -360
c53 -22 75 -67 75 -151 0 -53 -5 -78 -20 -103 -39 -63 -33 -63 -630 -60 l-539
3 -30 29 c-39 38 -54 85 -49 153 5 62 29 100 79 125 31 16 79 18 557 18 432 0
529 -2 557 -14z"/>
<path d="M4878 2813 c-38 -2 -68 -9 -68 -14 0 -6 14 -31 31 -56 l32 -45 48 5
49 6 0 -39 c0 -48 15 -59 40 -28 15 18 21 20 31 11 10 -10 9 -16 -4 -31 -20
-22 -21 -42 -4 -66 12 -16 16 -17 36 -5 74 45 82 221 12 259 -19 10 -57 10
-203 3z"/>
<path d="M420 2045 l0 -755 -45 0 c-38 0 -45 -3 -45 -20 0 -17 7 -20 45 -20
l45 0 0 -40 c0 -33 3 -40 20 -40 17 0 20 7 20 40 l0 40 130 0 c81 0 130 -4
130 -10 0 -6 33 -45 73 -88 41 -42 77 -85 80 -94 4 -10 12 -18 18 -18 7 0 27
-11 44 -24 30 -23 34 -24 55 -9 24 17 90 29 90 16 0 -4 -7 -33 -16 -65 -11
-36 -13 -63 -8 -68 12 -12 370 32 385 47 14 14 78 235 72 246 -3 5 -30 7 -61
5 l-56 -3 -7 33 -6 32 374 0 c428 0 409 4 513 -95 49 -48 57 -52 73 -40 28 20
13 52 -29 64 -96 27 -223 125 -225 174 0 12 -1 63 -2 112 -2 70 -6 98 -21 120
-18 27 -19 28 -30 8 -6 -11 -26 -33 -43 -48 l-33 -27 30 -36 c22 -28 80 -164
80 -189 0 -2 -155 -3 -345 -3 l-345 0 0 74 c0 148 -28 273 -72 328 -8 9 -30
19 -50 23 -32 6 -37 4 -55 -28 -11 -19 -30 -37 -42 -40 -17 -4 -25 3 -42 41
-12 26 -24 68 -26 95 -3 26 -10 50 -14 53 -11 7 -12 44 -1 44 4 0 13 -5 20
-12 9 -9 12 -4 12 23 0 22 5 36 13 36 6 0 33 3 59 7 43 6 47 5 54 -16 7 -22 8
-22 16 7 13 50 -8 94 -56 116 -53 24 -93 24 -134 -1 -40 -25 -55 -62 -47 -118
5 -31 0 -60 -15 -105 -13 -36 -19 -73 -16 -89 5 -26 3 -28 -25 -28 -23 0 -41
-11 -70 -41 -42 -44 -137 -224 -165 -313 l-18 -56 -123 0 -123 0 0 755 c0 748
0 755 -20 755 -20 0 -20 -7 -20 -755z m460 -710 c0 -43 -1 -45 -30 -45 l-30 0
28 45 c15 25 28 45 29 45 2 0 3 -20 3 -45z m0 -94 c0 -17 -18 -21 -24 -6 -3 9
0 15 9 15 8 0 15 -4 15 -9z m424 -43 c5 -21 3 -28 -9 -28 -11 0 -15 11 -15 43
1 44 11 37 24 -15z"/>
<path d="M4884 2475 c-3 -13 -7 -39 -7 -57 -2 -32 -1 -33 50 -42 l52 -9 -6
-66 c-3 -36 -7 -68 -9 -70 -5 -5 -72 14 -116 33 l-38 16 1 -212 c0 -216 -2
-232 -47 -385 -5 -20 0 -23 72 -38 61 -14 105 -17 213 -12 75 3 145 9 156 12
19 6 20 16 22 327 2 195 -1 336 -7 359 -14 51 -51 93 -100 113 -38 15 -41 15
-76 -9 -72 -49 -163 -26 -150 37 7 34 -1 38 -10 3z"/>
<path d="M2326 2317 c-36 -54 -58 -141 -81 -316 -17 -129 -26 -157 -57 -179
-23 -17 -23 -32 0 -32 31 0 62 -30 86 -83 13 -29 35 -63 49 -76 l26 -24 0 367
c0 201 -2 366 -4 366 -3 0 -11 -10 -19 -23z"/>
<path d="M2090 1682 c0 -4 16 -24 36 -43 20 -18 67 -74 105 -122 38 -49 69
-82 69 -74 0 17 -53 86 -139 185 -51 58 -71 73 -71 54z"/>
<path d="M2795 944 c-61 -41 -63 -44 -17 -44 37 0 44 4 53 27 15 41 7 45 -36
17z"/>
<path d="M2638 847 c-22 -12 -38 -30 -38 -40 0 -15 7 -18 48 -15 47 3 47 3 50
41 4 44 -6 46 -60 14z"/>
<path d="M2726 854 c-3 -9 -6 -27 -6 -40 0 -22 4 -24 50 -24 l50 0 0 40 0 40
-44 0 c-31 0 -46 -5 -50 -16z"/>
<path d="M2590 734 c-21 -54 -14 -64 39 -64 48 0 48 0 54 37 8 47 3 53 -44 53
-33 0 -41 -4 -49 -26z"/>
<path d="M2716 752 c-2 -4 -7 -24 -11 -45 l-7 -37 50 0 c53 0 62 10 62 68 0
19 -5 22 -44 22 -25 0 -47 -3 -50 -8z"/>
<path d="M2470 731 c-5 -11 -10 -29 -10 -41 0 -19 5 -21 48 -18 47 3 47 3 50
41 l3 37 -40 0 c-30 0 -43 -5 -51 -19z"/>
<path d="M1925 631 c-66 -31 -182 -64 -287 -81 l-67 -12 6 -51 c3 -29 6 -53 7
-54 1 -1 46 7 101 17 107 21 208 52 268 82 36 18 37 20 37 73 0 30 -1 55 -2
54 -2 0 -30 -13 -63 -28z"/>
<path d="M5565 579 c-16 -10 -37 -19 -46 -19 -9 0 -21 -12 -28 -27 -7 -16 -24
-45 -38 -66 -14 -20 -23 -40 -20 -43 7 -7 188 108 195 124 2 8 -4 22 -14 32
-18 17 -20 17 -49 -1z"/>
<path d="M980 484 c0 -61 -3 -59 118 -69 l83 -7 -6 38 c-11 66 -16 74 -38 75
-12 0 -52 3 -89 8 l-68 7 0 -52z"/>
<path d="M1330 464 l0 -57 50 5 c28 3 53 7 56 10 3 3 0 26 -7 52 -11 46 -11
46 -55 46 l-44 0 0 -56z"/>
<path d="M4662 423 c-63 -35 -74 -56 -24 -48 15 2 67 7 115 11 l88 6 -3 31
c-3 31 -4 32 -58 34 -46 1 -66 -5 -118 -34z"/>
<path d="M1485 142 c-3 -14 -2 -29 2 -33 11 -11 233 -27 239 -18 2 4 -26 24
-63 43 -54 29 -77 36 -119 35 -47 -1 -53 -4 -59 -27z"/>
<path d="M1278 103 c-37 -3 -48 -9 -53 -25 -4 -11 -3 -24 2 -29 12 -12 170
-31 215 -27 l33 3 -45 24 c-25 13 -56 32 -69 42 -13 11 -26 18 -30 17 -3 -1
-27 -3 -53 -5z"/>
</g>
</svg>
